<?xml version="1.0" encoding="UTF-8" standalone="no"?>
<!-- Created with Inkscape (http://www.inkscape.org/) -->

<svg
   xmlns:dc="http://purl.org/dc/elements/1.1/"
   xmlns:cc="http://creativecommons.org/ns#"
   xmlns:rdf="http://www.w3.org/1999/02/22-rdf-syntax-ns#"
   xmlns:svg="http://www.w3.org/2000/svg"
   xmlns="http://www.w3.org/2000/svg"
   xmlns:sodipodi="http://sodipodi.sourceforge.net/DTD/sodipodi-0.dtd"
   xmlns:inkscape="http://www.inkscape.org/namespaces/inkscape"
   width="215.2959"
   height="41.687923"
   viewBox="0 0 56.963706 11.02993"
   version="1.1"
   id="svg8"
   inkscape:version="0.92.5 (2060ec1f9f, 2020-04-08)"
   sodipodi:docname="reviewin.svg">
  <defs
     id="defs2" />
  <sodipodi:namedview
     id="base"
     pagecolor="#ffffff"
     bordercolor="#666666"
     borderopacity="1.0"
     inkscape:pageopacity="0.0"
     inkscape:pageshadow="2"
     inkscape:zoom="3.959798"
     inkscape:cx="104.53577"
     inkscape:cy="48.729535"
     inkscape:document-units="mm"
     inkscape:current-layer="g39"
     showgrid="false"
     units="px"
     inkscape:snap-bbox="true"
     inkscape:snap-bbox-midpoints="true"
     inkscape:snap-nodes="false"
     inkscape:snap-others="false"
     fit-margin-top="0"
     fit-margin-left="0"
     fit-margin-right="0"
     fit-margin-bottom="0"
     inkscape:window-width="1280"
     inkscape:window-height="716"
     inkscape:window-x="0"
     inkscape:window-y="20"
     inkscape:window-maximized="1" />
  <metadata
     id="metadata5">
    <rdf:RDF>
      <cc:Work
         rdf:about="">
        <dc:format>image/svg+xml</dc:format>
        <dc:type
           rdf:resource="http://purl.org/dc/dcmitype/StillImage" />
        <dc:title></dc:title>
      </cc:Work>
    </rdf:RDF>
  </metadata>
  <g
     inkscape:label="Calque 1"
     inkscape:groupmode="layer"
     id="layer1"
     transform="translate(-4.2556537,-283.75378)">
    <g
       aria-label="Reviewin"
       style="font-style:normal;font-variant:normal;font-weight:bold;font-stretch:normal;font-size:16.89524651px;line-height:0;font-family:'Arista Pro Alternate';-inkscape-font-specification:'Arista Pro Alternate Bold';text-align:start;text-anchor:start;fill:#000000;fill-opacity:1;stroke:none;stroke-width:6.09725475;stroke-miterlimit:4;stroke-dasharray:none;stroke-opacity:1"
       id="text12">
      <g
         id="g39"
         transform="translate(1.2027129,0.40090429)">
        <g
           id="g3793">
          <path
             inkscape:connector-curvature="0"
             d="m 3.6056662,294.29206 q -0.2309897,0 -0.3959823,-0.15674 -0.1567431,-0.15674 -0.1567431,-0.38773 v -9.77582 q 0,-0.23924 0.1567431,-0.39598 0.1649926,-0.15674 0.3959823,-0.15674 h 2.9286194 q 0.8002143,0 1.5179323,0.28049 0.717718,0.28048 1.2539441,0.79196 0.536226,0.50323 0.833213,1.22095 0.305236,0.71771 0.305236,1.52618 0,0.73421 -0.255738,1.37769 -0.255739,0.63522 -0.725968,1.12195 -0.4702291,0.48672 -1.0972011,0.79196 -0.626972,0.30524 -1.3529397,0.38773 l 2.4913889,2.41715 q 0.1649927,0.14024 0.1649927,0.40423 0,0.22274 -0.1732423,0.38773 -0.1649926,0.15674 -0.3877327,0.15674 -0.2227401,0 -0.3877327,-0.16499 L 5.4535838,290.94271 H 4.1583915 v 2.80488 q 0,0.23099 -0.1649926,0.38773 -0.156743,0.15674 -0.3877327,0.15674 z m 2.9286194,-4.46305 q 0.6104728,0 1.1301996,-0.19799 0.5197268,-0.19799 0.8992099,-0.56097 0.3794831,-0.35474 0.5774742,-0.82497 0.2062408,-0.47023 0.2062408,-1.00645 0,-0.54448 -0.2144904,-1.04771 -0.2062408,-0.51147 -0.5774743,-0.87446 -0.379483,-0.37123 -0.8909602,-0.57747 -0.5114772,-0.20624 -1.1054507,-0.20624 h -2.400643 v 5.29626 z"
             style="font-style:normal;font-variant:normal;font-weight:300;font-stretch:normal;font-family:'Arista Pro Trial';-inkscape-font-specification:'Arista Pro Trial Light';stroke-width:6.09725475"
             id="path14" />
          <path
             inkscape:connector-curvature="0"
             d="m 15.188149,294.38281 q -0.816713,0 -1.55918,-0.31349 -0.734217,-0.31348 -1.286943,-0.86621 -0.560975,-0.55272 -0.874461,-1.28694 -0.313486,-0.74247 -0.313486,-1.55918 0,-0.81671 0.313486,-1.55093 0.313486,-0.74247 0.874461,-1.30344 0.552726,-0.55273 1.286943,-0.86622 0.742467,-0.31348 1.55918,-0.31348 0.808464,0 1.542681,0.31348 0.742467,0.31349 1.303442,0.86622 0.552726,0.55272 0.866212,1.28694 0.321735,0.73422 0.329985,1.54268 0,0.22274 -0.148493,0.37948 -0.148494,0.1485 -0.387733,0.1485 h -6.319218 q 0.066,0.51147 0.305236,0.9652 0.247489,0.44548 0.626972,0.78372 0.387733,0.33823 0.866212,0.52797 0.486728,0.18975 1.014704,0.18975 0.494978,0 0.808464,-0.0908 0.280488,-0.0743 0.659971,-0.28874 0.164992,-0.099 0.338235,-0.099 0.22274,0 0.379483,0.18149 0.156743,0.17324 0.156743,0.39598 0,0.29699 -0.263988,0.44548 -0.478479,0.27224 -0.89921,0.37948 -0.527977,0.132 -1.179698,0.132 z m 2.92037,-4.44655 q -0.066,-0.54448 -0.313486,-1.00646 -0.239239,-0.47023 -0.635222,-0.81671 -0.395982,-0.34649 -0.89921,-0.53623 -0.503227,-0.19799 -1.055952,-0.19799 -0.560975,0 -1.064203,0.19799 -0.494978,0.19799 -0.882711,0.55273 -0.379483,0.34648 -0.618722,0.81671 -0.239239,0.47023 -0.296987,0.98996 z"
             style="font-style:normal;font-variant:normal;font-weight:300;font-stretch:normal;font-family:'Arista Pro Trial';-inkscape-font-specification:'Arista Pro Trial Light';stroke-width:6.09725475"
             id="path16" />
          <path
             inkscape:connector-curvature="0"
             d="m 23.182042,294.34156 q -0.164993,0 -0.296987,-0.0908 -0.131994,-0.099 -0.206241,-0.24748 l -2.854373,-6.9132 q -0.05775,-0.10724 -0.05775,-0.23924 0,-0.21449 0.156743,-0.37948 0.156743,-0.16499 0.404232,-0.16499 0.156743,0 0.288737,0.0908 0.131994,0.0825 0.206241,0.24748 l 2.367644,5.83249 2.359395,-5.83249 q 0.066,-0.16499 0.197991,-0.24748 0.140244,-0.0908 0.296987,-0.0908 0.239239,0 0.395982,0.16499 0.164993,0.16499 0.164993,0.37948 0,0.1155 -0.0495,0.23924 l -2.862622,6.9132 q -0.107245,0.17324 -0.21449,0.25573 -0.107246,0.0825 -0.296987,0.0825 z"
             style="font-style:normal;font-variant:normal;font-weight:300;font-stretch:normal;font-family:'Arista Pro Trial';-inkscape-font-specification:'Arista Pro Trial Light';stroke-width:6.09725475"
             id="path18" />
          <g
             id="g3775">
            <path
               style="font-style:normal;font-variant:normal;font-weight:300;font-stretch:normal;font-family:'Arista Pro Trial';-inkscape-font-specification:'Arista Pro Trial Light';stroke-width:41.48053741"
               d="m 111.73047,9.9355469 c -1.27213,0 -2.33866,0.4304421 -3.19922,1.2910151 -0.86056,0.860549 -1.28906,1.927081 -1.28906,3.199219 0,1.234722 0.4285,2.301254 1.28906,3.199219 0.86056,0.860573 1.92709,1.291016 3.19922,1.291016 1.27213,0 2.33865,-0.430443 3.19922,-1.291016 0.89797,-0.897965 1.34765,-1.964497 1.34765,-3.199219 0,-1.272138 -0.44968,-2.33867 -1.34765,-3.199219 -0.86057,-0.860573 -1.92709,-1.2910151 -3.19922,-1.2910151 z m 0.0371,2.0625001 c 0.16788,0 0.30273,0.134923 0.30273,0.302734 v 0.339844 c 0.0151,0.0021 0.0298,0.0021 0.0449,0.0059 0.004,9.83e-4 0.006,8.57e-4 0.01,0.002 l 0.45508,0.08398 c 0.16505,0.03024 0.27449,0.189106 0.24414,0.353516 -0.0302,0.164031 -0.18746,0.274376 -0.35156,0.24414 l -0.45118,-0.08203 c -0.29688,-0.04346 -0.55817,-0.01548 -0.74218,0.05859 -0.18403,0.07294 -0.25831,0.172648 -0.27539,0.265625 -0.0189,0.101669 -0.005,0.158209 0.0117,0.193359 0.017,0.03779 0.0519,0.07851 0.1211,0.125 0.15462,0.101669 0.3919,0.168362 0.69922,0.25 l 0.0273,0.0078 c 0.2713,0.07219 0.603,0.158926 0.84961,0.320312 0.1347,0.08806 0.26115,0.208323 0.33984,0.375 0.0806,0.169701 0.0975,0.358456 0.0606,0.560547 -0.0655,0.360567 -0.31284,0.602393 -0.62109,0.728515 -0.12994,0.05329 -0.27199,0.08651 -0.42188,0.103516 v 0.314453 c 0,0.167811 -0.13485,0.304688 -0.30273,0.304688 -0.16789,0 -0.30469,-0.136877 -0.30469,-0.304688 V 16.22077 c -0.004,-9.45e-4 -0.008,-8.19e-4 -0.0117,-0.002 h -0.002 c -0.23142,-0.03779 -0.61109,-0.136236 -0.86719,-0.25 -0.15269,-0.06841 -0.22259,-0.247698 -0.1543,-0.400391 0.0683,-0.152693 0.24768,-0.222328 0.40039,-0.154297 0.19824,0.08806 0.52414,0.175598 0.7129,0.205079 0.30258,0.0446 0.55186,0.02034 0.7207,-0.04883 0.16029,-0.06538 0.23304,-0.161626 0.2539,-0.27539 0.0182,-0.100536 0.005,-0.15821 -0.0117,-0.19336 -0.0182,-0.03779 -0.0528,-0.07851 -0.12305,-0.125 -0.15557,-0.101291 -0.39486,-0.168362 -0.70313,-0.25 l -0.0254,-0.0078 c -0.27031,-0.07219 -0.603,-0.16088 -0.84961,-0.322266 -0.1347,-0.08806 -0.26111,-0.207945 -0.33984,-0.375 -0.0797,-0.1697 -0.0946,-0.360408 -0.0566,-0.5625 0.0683,-0.362456 0.3382,-0.596406 0.64648,-0.71875 0.12617,-0.05027 0.26505,-0.08544 0.41016,-0.105468 v -0.333985 c 0,-0.167811 0.1368,-0.302734 0.30469,-0.302734 z"
               transform="matrix(0.26458333,0,0,0.26458333,-1.2027129,280.7241)"
               id="path43"
               inkscape:connector-curvature="0" />
            <path
               style="font-style:normal;font-variant:normal;font-weight:300;font-stretch:normal;font-family:'Arista Pro Trial';-inkscape-font-specification:'Arista Pro Trial Light';stroke-width:6.09725475"
               d="m 28.362812,294.32506 q -0.23099,0 -0.395982,-0.15674 -0.164993,-0.16499 -0.164993,-0.39598 v -6.88845 q 0,-0.23924 0.164993,-0.39598 0.164992,-0.16499 0.395982,-0.16499 0.239239,0 0.387733,0.16499 0.156743,0.15674 0.156743,0.39598 v 6.88845 q 0,0.23099 -0.164993,0.39598 -0.156743,0.15674 -0.379483,0.15674 z"
               id="path20"
               inkscape:connector-curvature="0" />
          </g>
          <path
             inkscape:connector-curvature="0"
             d="m 34.154054,294.38281 q -0.816714,0 -1.559181,-0.31349 -0.734217,-0.31348 -1.286943,-0.86621 -0.560975,-0.55272 -0.874461,-1.28694 -0.313486,-0.74247 -0.313486,-1.55918 0,-0.81671 0.313486,-1.55093 0.313486,-0.74247 0.874461,-1.30344 0.552726,-0.55273 1.286943,-0.86622 0.742467,-0.31348 1.559181,-0.31348 0.808463,0 1.542681,0.31348 0.742467,0.31349 1.303442,0.86622 0.552725,0.55272 0.866211,1.28694 0.321736,0.73422 0.329985,1.54268 0,0.22274 -0.148493,0.37948 -0.148494,0.1485 -0.387733,0.1485 h -6.319218 q 0.066,0.51147 0.305236,0.9652 0.247489,0.44548 0.626972,0.78372 0.387733,0.33823 0.866212,0.52797 0.486728,0.18975 1.014705,0.18975 0.494977,0 0.808463,-0.0908 0.280488,-0.0743 0.659971,-0.28874 0.164993,-0.099 0.338235,-0.099 0.22274,0 0.379483,0.18149 0.156743,0.17324 0.156743,0.39598 0,0.29699 -0.263988,0.44548 -0.478479,0.27224 -0.89921,0.37948 -0.527977,0.132 -1.179697,0.132 z m 2.920369,-4.44655 q -0.066,-0.54448 -0.313486,-1.00646 -0.239239,-0.47023 -0.635221,-0.81671 -0.395983,-0.34649 -0.89921,-0.53623 -0.503228,-0.19799 -1.055953,-0.19799 -0.560975,0 -1.064203,0.19799 -0.494978,0.19799 -0.88271,0.55273 -0.379483,0.34648 -0.618723,0.81671 -0.239239,0.47023 -0.296987,0.98996 z"
             style="font-style:normal;font-variant:normal;font-weight:300;font-stretch:normal;font-family:'Arista Pro Trial';-inkscape-font-specification:'Arista Pro Trial Light';stroke-width:6.09725475"
             id="path22" />
          <path
             inkscape:connector-curvature="0"
             d="m 41.760213,294.38281 q -0.527976,0 -0.998205,-0.19799 -0.46198,-0.19799 -0.824963,-0.56098 -0.362984,-0.36298 -0.560975,-0.83321 -0.197992,-0.47023 -0.197992,-0.99821 v -4.94153 q 0,-0.23923 0.156743,-0.39598 0.164993,-0.15674 0.395983,-0.15674 0.22274,0 0.379483,0.15674 0.164993,0.15675 0.173242,0.39598 l 0.0165,4.93328 v 0.0495 q -0.0082,0.0165 -0.0082,0.0495 0.0495,0.56098 0.478478,0.96521 0.206241,0.18974 0.46198,0.29698 0.263988,0.10725 0.552725,0.10725 0.305237,0 0.577474,-0.12375 0.272238,-0.12374 0.486729,-0.33823 0.206241,-0.21449 0.313486,-0.49498 0.115495,-0.28049 0.115495,-0.58572 v -4.85079 q 0,-0.23923 0.156743,-0.39598 0.156743,-0.16499 0.387732,-0.16499 0.22274,0 0.387733,0.16499 0.164993,0.15675 0.164993,0.39598 v 4.89204 0.0412 q -0.0082,0.0165 -0.0082,0.0495 0.0165,0.28874 0.140244,0.54448 0.123744,0.24749 0.321735,0.44548 0.206241,0.19799 0.46198,0.30523 0.263988,0.10725 0.552725,0.10725 0.296987,0 0.577474,-0.1155 0.280488,-0.11549 0.486729,-0.32173 0.206241,-0.20624 0.321735,-0.47023 0.123745,-0.27224 0.131994,-0.56097 v -4.92504 q 0,-0.23923 0.156743,-0.39598 0.164993,-0.15674 0.395983,-0.15674 0.22274,0 0.387733,0.15674 0.164992,0.15675 0.164992,0.39598 v 4.95803 q 0,0.52798 -0.206241,0.99821 -0.20624,0.46198 -0.577474,0.81671 -0.362984,0.35474 -0.849712,0.56098 -0.478479,0.19799 -0.998205,0.19799 -0.618723,0 -1.146699,-0.26399 -0.527977,-0.26399 -0.882711,-0.73422 -0.371233,0.47848 -0.907459,0.74247 -0.527977,0.25574 -1.13845,0.25574 z"
             style="font-style:normal;font-variant:normal;font-weight:300;font-stretch:normal;font-family:'Arista Pro Trial';-inkscape-font-specification:'Arista Pro Trial Light';stroke-width:6.09725475"
             id="path24" />
          <g
             id="g3779">
            <path
               style="font-style:normal;font-variant:normal;font-weight:300;font-stretch:normal;font-family:'Arista Pro Trial';-inkscape-font-specification:'Arista Pro Trial Light';stroke-width:41.48053741"
               d="m 195.57422,9.9355469 c -1.27213,0 -2.33866,0.4304421 -3.19922,1.2910151 -0.86056,0.860549 -1.29102,1.927081 -1.29102,3.199219 0,1.234722 0.43046,2.301254 1.29102,3.199219 0.86056,0.860573 1.92709,1.291016 3.19922,1.291016 1.27213,0 2.33865,-0.430443 3.19922,-1.291016 0.89797,-0.897965 1.3457,-1.964497 1.3457,-3.199219 0,-1.272138 -0.44773,-2.33867 -1.3457,-3.199219 -0.86057,-0.860573 -1.92709,-1.2910151 -3.19922,-1.2910151 z m 0.0352,2.0625001 c 0.16788,0 0.30273,0.134923 0.30273,0.302734 v 0.339844 c 0.0151,0.0021 0.0298,0.0021 0.0449,0.0059 0.004,9.83e-4 0.008,8.57e-4 0.0117,0.002 l 0.45508,0.08398 c 0.16505,0.03024 0.27254,0.189106 0.24219,0.353516 -0.0302,0.164031 -0.18746,0.274376 -0.35157,0.24414 l -0.45117,-0.08203 c -0.29688,-0.04346 -0.55818,-0.01548 -0.74219,0.05859 -0.18402,0.07294 -0.2583,0.172648 -0.27539,0.265625 -0.0189,0.101669 -0.005,0.158209 0.0117,0.193359 0.017,0.03779 0.0519,0.07851 0.1211,0.125 0.15462,0.101669 0.3919,0.168362 0.69921,0.25 l 0.0274,0.0078 c 0.27129,0.07219 0.603,0.158926 0.84961,0.320312 0.1347,0.08806 0.26115,0.208323 0.33984,0.375 0.0806,0.169701 0.0995,0.358456 0.0625,0.560547 -0.0655,0.360567 -0.31479,0.602393 -0.62305,0.728515 -0.12994,0.05329 -0.27199,0.08651 -0.42187,0.103516 v 0.314453 c 0,0.167811 -0.13485,0.304688 -0.30273,0.304688 -0.16789,0 -0.30274,-0.136877 -0.30274,-0.304688 V 16.22077 c -0.004,-9.45e-4 -0.01,-8.19e-4 -0.0137,-0.002 h -0.002 c -0.23142,-0.03779 -0.61109,-0.136236 -0.86719,-0.25 -0.15269,-0.06841 -0.22259,-0.247698 -0.1543,-0.400391 0.0683,-0.152693 0.24768,-0.222328 0.40039,-0.154297 0.19824,0.08806 0.52414,0.175598 0.71289,0.205079 0.30259,0.0446 0.55187,0.02034 0.72071,-0.04883 0.16029,-0.06538 0.23499,-0.161626 0.25586,-0.27539 0.0181,-0.100536 0.003,-0.15821 -0.0137,-0.19336 -0.0181,-0.03779 -0.0528,-0.07851 -0.12304,-0.125 -0.15557,-0.101291 -0.39291,-0.168362 -0.70118,-0.25 l -0.0273,-0.0078 c -0.27031,-0.07219 -0.603,-0.16088 -0.84961,-0.322266 -0.1347,-0.08806 -0.25916,-0.207945 -0.33789,-0.375 -0.0797,-0.1697 -0.0965,-0.360408 -0.0586,-0.5625 0.0683,-0.362456 0.34015,-0.596406 0.64843,-0.71875 0.12617,-0.05027 0.26309,-0.08544 0.40821,-0.105468 v -0.333985 c 0,-0.167811 0.1368,-0.302734 0.30469,-0.302734 z"
               transform="matrix(0.26458333,0,0,0.26458333,-1.2027129,280.7241)"
               id="path47"
               inkscape:connector-curvature="0" />
            <path
               style="font-style:normal;font-variant:normal;font-weight:300;font-stretch:normal;font-family:'Arista Pro Trial';-inkscape-font-specification:'Arista Pro Trial Light';stroke-width:6.09725475"
               d="m 50.546074,294.32506 q -0.23099,0 -0.395983,-0.15674 -0.164992,-0.16499 -0.164992,-0.39598 v -6.88845 q 0,-0.23924 0.164992,-0.39598 0.164993,-0.16499 0.395983,-0.16499 0.239239,0 0.387733,0.16499 0.156743,0.15674 0.156743,0.39598 v 6.88845 q 0,0.23099 -0.164993,0.39598 -0.156743,0.15674 -0.379483,0.15674 z"
               id="path26"
               inkscape:connector-curvature="0" />
          </g>
          <path
             inkscape:connector-curvature="0"
             d="m 53.119957,294.28381 q -0.23099,0 -0.404232,-0.15674 -0.164993,-0.15674 -0.164993,-0.38773 V 290.192 q 0,-0.78372 0.280488,-1.49319 0.280487,-0.70947 0.791965,-1.24569 0.511477,-0.53623 1.196196,-0.83321 0.692969,-0.29699 1.476684,-0.29699 0.783715,0 1.468435,0.29699 0.684719,0.29698 1.196196,0.82496 0.503228,0.53622 0.775466,1.24569 0.280487,0.70122 0.280487,1.49319 v 3.55559 q 0,0.23924 -0.156743,0.39598 -0.148493,0.14849 -0.387732,0.14849 -0.23099,0 -0.395983,-0.14849 -0.156743,-0.15674 -0.156743,-0.39598 v -3.51435 q 0,-0.56922 -0.197991,-1.0807 -0.189741,-0.51147 -0.536226,-0.89096 -0.362984,-0.38773 -0.849712,-0.60222 -0.478479,-0.21449 -1.039454,-0.21449 -0.560975,0 -1.047703,0.21449 -0.478479,0.20624 -0.841462,0.58572 -0.354735,0.37124 -0.552726,0.88271 -0.197991,0.51148 -0.197991,1.08071 v 3.53909 q 0,0.23924 -0.148493,0.39598 -0.148494,0.14849 -0.387733,0.14849 z"
             style="font-style:normal;font-variant:normal;font-weight:300;font-stretch:normal;font-family:'Arista Pro Trial';-inkscape-font-specification:'Arista Pro Trial Light';stroke-width:6.09725475"
             id="path28" />
        </g>
      </g>
    </g>
  </g>
</svg>
