<?xml version="1.0" encoding="UTF-8" standalone="no"?>
<!-- Created with Inkscape (http://www.inkscape.org/) -->

<svg
   xmlns:dc="http://purl.org/dc/elements/1.1/"
   xmlns:cc="http://creativecommons.org/ns#"
   xmlns:rdf="http://www.w3.org/1999/02/22-rdf-syntax-ns#"
   xmlns:svg="http://www.w3.org/2000/svg"
   xmlns="http://www.w3.org/2000/svg"
   xmlns:sodipodi="http://sodipodi.sourceforge.net/DTD/sodipodi-0.dtd"
   xmlns:inkscape="http://www.inkscape.org/namespaces/inkscape"
   width="215.2959"
   height="41.687923"
   viewBox="0 0 56.963706 11.02993"
   version="1.1"
   id="svg8"
   inkscape:version="0.92.5 (2060ec1f9f, 2020-04-08)"
   sodipodi:docname="reviewinv2.svg"
   inkscape:export-filename="/home/locness3/Images/reviewinv2.png"
   inkscape:export-xdpi="96"
   inkscape:export-ydpi="96">
  <defs
     id="defs2" />
  <sodipodi:namedview
     id="base"
     pagecolor="#ffffff"
     bordercolor="#666666"
     borderopacity="1.0"
     inkscape:pageopacity="0.0"
     inkscape:pageshadow="2"
     inkscape:zoom="4"
     inkscape:cx="99.123021"
     inkscape:cy="25.709524"
     inkscape:document-units="mm"
     inkscape:current-layer="g3779"
     showgrid="false"
     units="px"
     inkscape:snap-bbox="true"
     inkscape:snap-bbox-midpoints="true"
     inkscape:snap-nodes="false"
     inkscape:snap-others="false"
     fit-margin-top="0"
     fit-margin-left="0"
     fit-margin-right="0"
     fit-margin-bottom="0"
     inkscape:window-width="1280"
     inkscape:window-height="716"
     inkscape:window-x="0"
     inkscape:window-y="20"
     inkscape:window-maximized="1" />
  <metadata
     id="metadata5">
    <rdf:RDF>
      <cc:Work
         rdf:about="">
        <dc:format>image/svg+xml</dc:format>
        <dc:type
           rdf:resource="http://purl.org/dc/dcmitype/StillImage" />
        <dc:title></dc:title>
      </cc:Work>
    </rdf:RDF>
  </metadata>
  <g
     inkscape:label="Calque 1"
     inkscape:groupmode="layer"
     id="layer1"
     transform="translate(-4.2556537,-283.75378)">
    <g
       aria-label="Reviewin"
       style="font-style:normal;font-variant:normal;font-weight:bold;font-stretch:normal;font-size:16.89524651px;line-height:0;font-family:'Arista Pro Alternate';-inkscape-font-specification:'Arista Pro Alternate Bold';text-align:start;text-anchor:start;fill:#000000;fill-opacity:1;stroke:none;stroke-width:6.09725475;stroke-miterlimit:4;stroke-dasharray:none;stroke-opacity:1"
       id="text12">
      <g
         id="g39"
         transform="translate(1.2027129,0.40090429)">
        <g
           id="g3793">
          <g
             id="g3779">
            <path
               style="font-style:normal;font-variant:normal;font-weight:300;font-stretch:normal;font-family:'Arista Pro Trial';-inkscape-font-specification:'Arista Pro Trial Light';stroke-width:41.48053741"
               d="M 179.49023 0 C 178.2181 0 177.15158 0.43044264 176.29102 1.2910156 C 175.43046 2.1515646 175 3.2180964 175 4.4902344 C 175 5.7249564 175.43046 6.7914881 176.29102 7.6894531 C 177.15158 8.5500261 178.2181 8.9804688 179.49023 8.9804688 C 180.76236 8.9804688 181.82888 8.5500261 182.68945 7.6894531 C 183.58742 6.7914881 184.03516 5.7249564 184.03516 4.4902344 C 184.03516 3.2180964 183.58742 2.1515646 182.68945 1.2910156 C 181.82888 0.43044264 180.76236 1.7763568e-15 179.49023 0 z M 178.48438 1.9492188 L 178.50586 1.9492188 C 178.82252 1.9492188 179.11652 2.1166093 179.27734 2.390625 L 179.51758 2.796875 L 179.75586 2.390625 C 179.91667 2.1177053 180.21069 1.9492188 180.52734 1.9492188 L 180.54883 1.9492188 C 181.03127 1.9492188 181.42383 2.3398089 181.42383 2.8222656 C 181.42383 2.9649806 181.38867 3.101648 181.32812 3.2207031 L 181.74023 3.2207031 C 181.91594 3.2207031 182.05859 3.3613613 182.05859 3.5371094 L 182.05859 4.171875 C 182.05859 4.347623 181.91594 4.4902344 181.74023 4.4902344 L 177.29297 4.4902344 C 177.11726 4.4902344 176.97656 4.347623 176.97656 4.171875 L 176.97656 3.5371094 C 176.97656 3.3617393 177.11726 3.2207031 177.29297 3.2207031 L 177.70703 3.2207031 C 177.64648 3.1014212 177.61133 2.9651318 177.61133 2.8222656 C 177.61133 2.3398089 178.00193 1.9492188 178.48438 1.9492188 z M 178.48438 2.4257812 C 178.26498 2.4257812 178.08789 2.6026751 178.08789 2.8222656 C 178.08789 3.041705 178.26501 3.21875 178.48438 3.21875 L 179.19922 3.21875 L 179.21289 3.21875 L 178.86719 2.6328125 C 178.79256 2.5054138 178.65328 2.4257812 178.50586 2.4257812 L 178.48438 2.4257812 z M 180.52734 2.4257812 C 180.37941 2.4257812 180.24341 2.5046865 180.16797 2.6328125 L 179.82227 3.2207031 L 179.83398 3.2207031 L 180.54883 3.2207031 C 180.76819 3.2207031 180.94727 3.0418562 180.94727 2.8222656 C 180.94727 2.6028263 180.76819 2.4257812 180.54883 2.4257812 L 180.52734 2.4257812 z M 177.29297 4.8085938 L 179.19922 4.8085938 L 179.19922 7.03125 L 177.76953 7.03125 C 177.50648 7.03125 177.29297 6.8177426 177.29297 6.5546875 L 177.29297 4.8085938 z M 179.83398 4.8085938 L 181.74023 4.8085938 L 181.74023 6.5546875 C 181.74023 6.8176292 181.52673 7.03125 181.26367 7.03125 L 179.83398 7.03125 L 179.83398 4.8085938 z "
               transform="matrix(0.26458333,0,0,0.26458333,3.0529408,283.35288)"
               id="path47" />
            <path
               style="font-style:normal;font-variant:normal;font-weight:300;font-stretch:normal;font-family:'Arista Pro Trial';-inkscape-font-specification:'Arista Pro Trial Light';stroke-width:6.09725475"
               d="m 50.546074,294.32506 q -0.23099,0 -0.395983,-0.15674 -0.164992,-0.16499 -0.164992,-0.39598 v -6.88845 q 0,-0.23924 0.164992,-0.39598 0.164993,-0.16499 0.395983,-0.16499 0.239239,0 0.387733,0.16499 0.156743,0.15674 0.156743,0.39598 v 6.88845 q 0,0.23099 -0.164993,0.39598 -0.156743,0.15674 -0.379483,0.15674 z"
               id="path26"
               inkscape:connector-curvature="0" />
          </g>
          <path
             inkscape:connector-curvature="0"
             d="m 3.6056662,294.29206 q -0.2309897,0 -0.3959823,-0.15674 -0.1567431,-0.15674 -0.1567431,-0.38773 v -9.77582 q 0,-0.23924 0.1567431,-0.39598 0.1649926,-0.15674 0.3959823,-0.15674 h 2.9286194 q 0.8002143,0 1.5179323,0.28049 0.717718,0.28048 1.2539441,0.79196 0.536226,0.50323 0.833213,1.22095 0.305236,0.71771 0.305236,1.52618 0,0.73421 -0.255738,1.37769 -0.255739,0.63522 -0.725968,1.12195 -0.4702291,0.48672 -1.0972011,0.79196 -0.626972,0.30524 -1.3529397,0.38773 l 2.4913889,2.41715 q 0.1649927,0.14024 0.1649927,0.40423 0,0.22274 -0.1732423,0.38773 -0.1649926,0.15674 -0.3877327,0.15674 -0.2227401,0 -0.3877327,-0.16499 L 5.4535838,290.94271 H 4.1583915 v 2.80488 q 0,0.23099 -0.1649926,0.38773 -0.156743,0.15674 -0.3877327,0.15674 z m 2.9286194,-4.46305 q 0.6104728,0 1.1301996,-0.19799 0.5197268,-0.19799 0.8992099,-0.56097 0.3794831,-0.35474 0.5774742,-0.82497 0.2062408,-0.47023 0.2062408,-1.00645 0,-0.54448 -0.2144904,-1.04771 -0.2062408,-0.51147 -0.5774743,-0.87446 -0.379483,-0.37123 -0.8909602,-0.57747 -0.5114772,-0.20624 -1.1054507,-0.20624 h -2.400643 v 5.29626 z"
             style="font-style:normal;font-variant:normal;font-weight:300;font-stretch:normal;font-family:'Arista Pro Trial';-inkscape-font-specification:'Arista Pro Trial Light';stroke-width:6.09725475"
             id="path14" />
          <path
             inkscape:connector-curvature="0"
             d="m 15.188149,294.38281 q -0.816713,0 -1.55918,-0.31349 -0.734217,-0.31348 -1.286943,-0.86621 -0.560975,-0.55272 -0.874461,-1.28694 -0.313486,-0.74247 -0.313486,-1.55918 0,-0.81671 0.313486,-1.55093 0.313486,-0.74247 0.874461,-1.30344 0.552726,-0.55273 1.286943,-0.86622 0.742467,-0.31348 1.55918,-0.31348 0.808464,0 1.542681,0.31348 0.742467,0.31349 1.303442,0.86622 0.552726,0.55272 0.866212,1.28694 0.321735,0.73422 0.329985,1.54268 0,0.22274 -0.148493,0.37948 -0.148494,0.1485 -0.387733,0.1485 h -6.319218 q 0.066,0.51147 0.305236,0.9652 0.247489,0.44548 0.626972,0.78372 0.387733,0.33823 0.866212,0.52797 0.486728,0.18975 1.014704,0.18975 0.494978,0 0.808464,-0.0908 0.280488,-0.0743 0.659971,-0.28874 0.164992,-0.099 0.338235,-0.099 0.22274,0 0.379483,0.18149 0.156743,0.17324 0.156743,0.39598 0,0.29699 -0.263988,0.44548 -0.478479,0.27224 -0.89921,0.37948 -0.527977,0.132 -1.179698,0.132 z m 2.92037,-4.44655 q -0.066,-0.54448 -0.313486,-1.00646 -0.239239,-0.47023 -0.635222,-0.81671 -0.395982,-0.34649 -0.89921,-0.53623 -0.503227,-0.19799 -1.055952,-0.19799 -0.560975,0 -1.064203,0.19799 -0.494978,0.19799 -0.882711,0.55273 -0.379483,0.34648 -0.618722,0.81671 -0.239239,0.47023 -0.296987,0.98996 z"
             style="font-style:normal;font-variant:normal;font-weight:300;font-stretch:normal;font-family:'Arista Pro Trial';-inkscape-font-specification:'Arista Pro Trial Light';stroke-width:6.09725475"
             id="path16" />
          <path
             inkscape:connector-curvature="0"
             d="m 23.182042,294.34156 q -0.164993,0 -0.296987,-0.0908 -0.131994,-0.099 -0.206241,-0.24748 l -2.854373,-6.9132 q -0.05775,-0.10724 -0.05775,-0.23924 0,-0.21449 0.156743,-0.37948 0.156743,-0.16499 0.404232,-0.16499 0.156743,0 0.288737,0.0908 0.131994,0.0825 0.206241,0.24748 l 2.367644,5.83249 2.359395,-5.83249 q 0.066,-0.16499 0.197991,-0.24748 0.140244,-0.0908 0.296987,-0.0908 0.239239,0 0.395982,0.16499 0.164993,0.16499 0.164993,0.37948 0,0.1155 -0.0495,0.23924 l -2.862622,6.9132 q -0.107245,0.17324 -0.21449,0.25573 -0.107246,0.0825 -0.296987,0.0825 z"
             style="font-style:normal;font-variant:normal;font-weight:300;font-stretch:normal;font-family:'Arista Pro Trial';-inkscape-font-specification:'Arista Pro Trial Light';stroke-width:6.09725475"
             id="path18" />
          <g
             id="g3775">
            <path
               style="font-style:normal;font-variant:normal;font-weight:300;font-stretch:normal;font-family:'Arista Pro Trial';-inkscape-font-specification:'Arista Pro Trial Light';stroke-width:41.48053741"
               d="M 95.646484 0 C 94.374354 0 93.307826 0.43044264 92.447266 1.2910156 C 91.586706 2.1515646 91.158203 3.2180964 91.158203 4.4902344 C 91.158203 5.7249564 91.586706 6.7914881 92.447266 7.6894531 C 93.307826 8.5500261 94.374354 8.9804688 95.646484 8.9804688 C 96.918614 8.9804688 97.985133 8.5500261 98.845703 7.6894531 C 99.743673 6.7914881 100.19336 5.7249564 100.19336 4.4902344 C 100.19336 3.2180964 99.743673 2.1515646 98.845703 1.2910156 C 97.985133 0.43044264 96.918614 1.7763568e-15 95.646484 0 z M 95.675781 2.0117188 C 97.239137 2.0117188 98.505859 3.042163 98.505859 4.3125 C 98.505859 5.5829126 97.239137 6.6113281 95.675781 6.6113281 L 95.675781 6.6132812 C 95.265593 6.6132812 94.877 6.5430078 94.525391 6.4160156 C 94.393821 6.5120156 94.177019 6.643544 93.923828 6.7539062 C 93.658475 6.8691818 93.338814 6.9667969 93.021484 6.9667969 C 92.949598 6.9667969 92.886966 6.9235636 92.859375 6.8574219 C 92.831558 6.7909022 92.845612 6.7150861 92.896484 6.6640625 L 92.900391 6.6621094 C 92.903792 6.6583298 92.907259 6.6540434 92.914062 6.6464844 C 92.927329 6.6321222 92.945695 6.6142206 92.96875 6.5839844 C 93.014029 6.5288033 93.075868 6.4454193 93.136719 6.34375 C 93.24727 6.1601783 93.351882 5.9194296 93.373047 5.6484375 C 93.041325 5.2713918 92.845703 4.8111331 92.845703 4.3125 C 92.845703 3.042163 94.112421 2.0117188 95.675781 2.0117188 z M 97.099609 3.9570312 A 0.35380123 0.35380123 0 0 0 96.736328 4.3125 A 0.35380123 0.35380123 0 1 0 97.445312 4.3125 A 0.35380123 0.35380123 0 0 0 97.099609 3.9570312 z M 94.242188 3.9589844 A 0.35380464 0.35380464 0 0 0 94.259766 4.6660156 A 0.35380464 0.35380464 0 1 0 94.259766 3.9589844 A 0.35380464 0.35380464 0 0 0 94.242188 3.9589844 z M 95.658203 3.9589844 A 0.35380464 0.35380464 0 0 0 95.675781 4.6660156 A 0.35380464 0.35380464 0 1 0 95.675781 3.9589844 A 0.35380464 0.35380464 0 0 0 95.658203 3.9589844 z "
               transform="matrix(0.26458333,0,0,0.26458333,3.0529408,283.35288)"
               id="path43" />
            <path
               style="font-style:normal;font-variant:normal;font-weight:300;font-stretch:normal;font-family:'Arista Pro Trial';-inkscape-font-specification:'Arista Pro Trial Light';stroke-width:6.09725475"
               d="m 28.362812,294.32506 q -0.23099,0 -0.395982,-0.15674 -0.164993,-0.16499 -0.164993,-0.39598 v -6.88845 q 0,-0.23924 0.164993,-0.39598 0.164992,-0.16499 0.395982,-0.16499 0.239239,0 0.387733,0.16499 0.156743,0.15674 0.156743,0.39598 v 6.88845 q 0,0.23099 -0.164993,0.39598 -0.156743,0.15674 -0.379483,0.15674 z"
               id="path20"
               inkscape:connector-curvature="0" />
          </g>
          <path
             inkscape:connector-curvature="0"
             d="m 34.154054,294.38281 q -0.816714,0 -1.559181,-0.31349 -0.734217,-0.31348 -1.286943,-0.86621 -0.560975,-0.55272 -0.874461,-1.28694 -0.313486,-0.74247 -0.313486,-1.55918 0,-0.81671 0.313486,-1.55093 0.313486,-0.74247 0.874461,-1.30344 0.552726,-0.55273 1.286943,-0.86622 0.742467,-0.31348 1.559181,-0.31348 0.808463,0 1.542681,0.31348 0.742467,0.31349 1.303442,0.86622 0.552725,0.55272 0.866211,1.28694 0.321736,0.73422 0.329985,1.54268 0,0.22274 -0.148493,0.37948 -0.148494,0.1485 -0.387733,0.1485 h -6.319218 q 0.066,0.51147 0.305236,0.9652 0.247489,0.44548 0.626972,0.78372 0.387733,0.33823 0.866212,0.52797 0.486728,0.18975 1.014705,0.18975 0.494977,0 0.808463,-0.0908 0.280488,-0.0743 0.659971,-0.28874 0.164993,-0.099 0.338235,-0.099 0.22274,0 0.379483,0.18149 0.156743,0.17324 0.156743,0.39598 0,0.29699 -0.263988,0.44548 -0.478479,0.27224 -0.89921,0.37948 -0.527977,0.132 -1.179697,0.132 z m 2.920369,-4.44655 q -0.066,-0.54448 -0.313486,-1.00646 -0.239239,-0.47023 -0.635221,-0.81671 -0.395983,-0.34649 -0.89921,-0.53623 -0.503228,-0.19799 -1.055953,-0.19799 -0.560975,0 -1.064203,0.19799 -0.494978,0.19799 -0.88271,0.55273 -0.379483,0.34648 -0.618723,0.81671 -0.239239,0.47023 -0.296987,0.98996 z"
             style="font-style:normal;font-variant:normal;font-weight:300;font-stretch:normal;font-family:'Arista Pro Trial';-inkscape-font-specification:'Arista Pro Trial Light';stroke-width:6.09725475"
             id="path22" />
          <path
             inkscape:connector-curvature="0"
             d="m 41.760213,294.38281 q -0.527976,0 -0.998205,-0.19799 -0.46198,-0.19799 -0.824963,-0.56098 -0.362984,-0.36298 -0.560975,-0.83321 -0.197992,-0.47023 -0.197992,-0.99821 v -4.94153 q 0,-0.23923 0.156743,-0.39598 0.164993,-0.15674 0.395983,-0.15674 0.22274,0 0.379483,0.15674 0.164993,0.15675 0.173242,0.39598 l 0.0165,4.93328 v 0.0495 q -0.0082,0.0165 -0.0082,0.0495 0.0495,0.56098 0.478478,0.96521 0.206241,0.18974 0.46198,0.29698 0.263988,0.10725 0.552725,0.10725 0.305237,0 0.577474,-0.12375 0.272238,-0.12374 0.486729,-0.33823 0.206241,-0.21449 0.313486,-0.49498 0.115495,-0.28049 0.115495,-0.58572 v -4.85079 q 0,-0.23923 0.156743,-0.39598 0.156743,-0.16499 0.387732,-0.16499 0.22274,0 0.387733,0.16499 0.164993,0.15675 0.164993,0.39598 v 4.89204 0.0412 q -0.0082,0.0165 -0.0082,0.0495 0.0165,0.28874 0.140244,0.54448 0.123744,0.24749 0.321735,0.44548 0.206241,0.19799 0.46198,0.30523 0.263988,0.10725 0.552725,0.10725 0.296987,0 0.577474,-0.1155 0.280488,-0.11549 0.486729,-0.32173 0.206241,-0.20624 0.321735,-0.47023 0.123745,-0.27224 0.131994,-0.56097 v -4.92504 q 0,-0.23923 0.156743,-0.39598 0.164993,-0.15674 0.395983,-0.15674 0.22274,0 0.387733,0.15674 0.164992,0.15675 0.164992,0.39598 v 4.95803 q 0,0.52798 -0.206241,0.99821 -0.20624,0.46198 -0.577474,0.81671 -0.362984,0.35474 -0.849712,0.56098 -0.478479,0.19799 -0.998205,0.19799 -0.618723,0 -1.146699,-0.26399 -0.527977,-0.26399 -0.882711,-0.73422 -0.371233,0.47848 -0.907459,0.74247 -0.527977,0.25574 -1.13845,0.25574 z"
             style="font-style:normal;font-variant:normal;font-weight:300;font-stretch:normal;font-family:'Arista Pro Trial';-inkscape-font-specification:'Arista Pro Trial Light';stroke-width:6.09725475"
             id="path24" />
          <path
             inkscape:connector-curvature="0"
             d="m 53.119957,294.28381 q -0.23099,0 -0.404232,-0.15674 -0.164993,-0.15674 -0.164993,-0.38773 V 290.192 q 0,-0.78372 0.280488,-1.49319 0.280487,-0.70947 0.791965,-1.24569 0.511477,-0.53623 1.196196,-0.83321 0.692969,-0.29699 1.476684,-0.29699 0.783715,0 1.468435,0.29699 0.684719,0.29698 1.196196,0.82496 0.503228,0.53622 0.775466,1.24569 0.280487,0.70122 0.280487,1.49319 v 3.55559 q 0,0.23924 -0.156743,0.39598 -0.148493,0.14849 -0.387732,0.14849 -0.23099,0 -0.395983,-0.14849 -0.156743,-0.15674 -0.156743,-0.39598 v -3.51435 q 0,-0.56922 -0.197991,-1.0807 -0.189741,-0.51147 -0.536226,-0.89096 -0.362984,-0.38773 -0.849712,-0.60222 -0.478479,-0.21449 -1.039454,-0.21449 -0.560975,0 -1.047703,0.21449 -0.478479,0.20624 -0.841462,0.58572 -0.354735,0.37124 -0.552726,0.88271 -0.197991,0.51148 -0.197991,1.08071 v 3.53909 q 0,0.23924 -0.148493,0.39598 -0.148494,0.14849 -0.387733,0.14849 z"
             style="font-style:normal;font-variant:normal;font-weight:300;font-stretch:normal;font-family:'Arista Pro Trial';-inkscape-font-specification:'Arista Pro Trial Light';stroke-width:6.09725475"
             id="path28" />
        </g>
      </g>
    </g>
  </g>
</svg>
